<?xml version="1.0" encoding="utf-8"?>
<!-- Generator: Adobe Illustrator 26.0.3, SVG Export Plug-In . SVG Version: 6.00 Build 0)  -->
<svg version="1.1" id="BARK_00000008140343961261089210000017261216998603321497_"
	 xmlns="http://www.w3.org/2000/svg" xmlns:xlink="http://www.w3.org/1999/xlink" x="0px" y="0px" viewBox="0 0 4800 1221.6"
	 style="enable-background:new 0 0 4800 1221.6;" xml:space="preserve">
<style type="text/css">
	.st0{fill:#FFFFFF;}
</style>
<g id="BARK">
	<g>
		<path class="st0" d="M1106.2,1183.5c0-2.3-1.1-4.5-3.4-6.8c2.3-1.1,3.1-3.4,2.5-6.8c-0.6-3.4-0.8-5.6-0.8-6.8l1.7-3.4l-8.5-293.4
			c-1.1-3.4-1.4-6.2-0.9-8.5c0.6-2.3,0.9-4.5,0.9-6.8l-1.7-13.6c2.3-1.1,2.8-3.1,1.7-5.9c-1.1-2.8-1.7-5.4-1.7-7.6l1.7-3.4l-1.7-8.5
			c-4.5-4.5-6.8-8.5-6.8-11.9c-2.3,0-4-0.8-5.1-2.5c-1.1-1.7-2.3-3.1-3.4-4.2c-1.1,0-2.3-1.4-3.4-4.2c-1.1-2.8-1.7-4.8-1.7-5.9
			c-3.4,0-5.7-0.8-6.8-2.5c-1.1-1.7-2.3-3.1-3.4-4.2c-2.3-1.1-4.5-3.1-6.8-5.9c-2.3-2.8-4.5-4.8-6.8-5.9c-3.4-5.6-6.2-8.5-8.5-8.5
			c-2.3-1.1-4.5-2.8-6.8-5.1c-2.3-2.3-4-3.9-5.1-5.1c-1.1-2.3-2-4.2-2.6-5.9c-0.6-1.7-1.4-2.5-2.5-2.5c0-1.1-0.6-2.3-1.7-3.4
			c-1.1-1.1-2.8-1.7-5.1-1.7c-2.3-1.1-5.6-3.9-10.2-8.5l-8.5-8.5l-11.9-6.8l-8.5-8.5c-2.3-1.1-4.8-2.8-7.6-5.1
			c-2.8-2.3-5.4-3.9-7.6-5.1c-2.3-4.5-6.2-7.4-11.9-8.5c-1.1-2.3-2.5-3.7-4.2-4.2c-1.7-0.6-3.7-1.4-5.9-2.6
			c-1.1-1.1-2.3-2.5-3.4-4.2c-1.1-1.7-3.4-2.5-6.8-2.5c-3.4-1.1-7.9-4.5-13.6-10.2c-3.4-1.1-6.5-2.3-9.3-3.4
			c-2.8-1.1-5.4-2.3-7.6-3.4c-5.7-2.3-9.6-6.2-11.9-11.9c-4.5-2.3-9.1-4.2-13.6-5.9c-4.5-1.7-7.9-3.1-10.2-4.2
			c-4.5-3.4-8.5-5.9-11.9-7.6c-3.4-1.7-6.2-3.1-8.5-4.2c-10.2-5.6-16.4-9.6-18.7-11.9c-3.4-3.4-10.2-6.8-20.4-10.2
			c-12.4-7.9-19.8-12.4-22-13.6c-4.5-3.4-12.4-6.2-23.7-8.5c-4.5-2.3-8.5-4.8-11.9-7.6c-3.4-2.8-7.4-5.4-11.9-7.6
			c-6.8-4.5-13.6-7.3-20.4-8.5c-2.3,0-5.1-0.8-8.5-2.5c-3.4-1.7-6.2-2.6-8.5-2.6c-5.7-4.5-11.9-7.3-18.7-8.5c0-1.1-1.1-1.7-3.4-1.7
			c-2.3,0-4.8-1.1-7.6-3.4c-2.8-2.3-5.9-3.4-9.3-3.4h-3.4l-11.9-8.5c-6.8,0-11.3-1.7-13.6-5.1c-2.3,0-5.1-0.3-8.5-0.8
			c-3.4-0.6-5.6-2-6.8-4.2c-1.1,0-3.7,0-7.6,0c-4,0-6.5-1.1-7.6-3.4c-1.1-1.1-6.8-2.8-17-5.1c-2.3,1.1-4.8,0.3-7.6-2.5
			c-2.8-2.8-4.8-4.2-5.9-4.2c-3.4,1.1-6.2,1.1-8.5,0c-2.3-1.1-4-1.7-5.1-1.7h-1.7l-17-8.5c-5.7,0-9.6-0.6-11.9-1.7
			c-2.3-1.1-5.1-2.2-8.5-3.4c-3.4-1.1-6.2-2.3-8.5-3.4c-2.3,2.3-4.8,2.6-7.6,0.9c-2.8-1.7-5.4-2.5-7.6-2.5c-2.3,0-4.2-0.8-5.9-2.5
			c-1.7-1.7-3.7-2-5.9-0.9c-2.3,0-4.5-0.8-6.8-2.5c-2.3-1.7-4.5-2.5-6.8-2.5h-3.4l-3.4-3.4c-2.3-2.3-6.2-3.9-11.9-5.1
			c-5.6-1.1-9-2.3-10.2-3.4c-2.3,0-4.5-0.8-6.8-2.5c-2.3-1.7-4-2.5-5.1-2.5c-4.5,0-8.5-1.7-11.9-5.1c-3.4-2.2-6.5-3.4-9.3-3.4
			c-2.8,0-5.4-0.6-7.6-1.7c-1.1,0-3.1-0.8-5.9-2.5c-2.8-1.7-5.4-2-7.6-0.9c-1.1-2.3-3.4-3.4-6.8-3.4c-3.4,0-6.2-0.6-8.5-1.7
			c-1.1,1.1-3.1,1.4-5.9,0.9c-2.8-0.6-5.4-0.9-7.6-0.9c-2.3-1.1-6.2-1.7-11.9-1.7v-3.4v-3.4c4.5-2.3,9-3.4,13.6-3.4h6.8
			c5.6,0,10.2,1.1,13.6,3.4c2.3-1.1,5.4-1.1,9.3,0c4,1.1,7.1,0.6,9.3-1.7c0-1.1,1.1-1.1,3.4,0c2.3,1.1,4.5,1.1,6.8,0h3.4
			c2.3,3.4,6.2,5.1,11.9,5.1c1.1,1.1,2.8,1.1,5.1,0c2.3-1.1,4.5-1.1,6.8,0c1.1,1.1,2.5,1.7,4.2,1.7c1.7,0,3.1,1.1,4.2,3.4
			c4.5-1.1,9.6-1.1,15.3,0h13.6c1.1,0,5.1,1.7,11.9,5.1c7.9,0,13,0.6,15.3,1.7c2.3,1.1,4.5,1.1,6.8,0c2.3-1.1,4.5-1.7,6.8-1.7
			c2.3,1.1,5.1,2.3,8.5,3.4s6.8,1.7,10.2,1.7c4.5,0,7.4-0.6,8.5-1.7c2.3,1.1,4.8,2,7.6,2.6c2.8,0.6,5.4,2,7.6,4.2
			c2.3-1.1,4.5-1.4,6.8-0.9c2.3,0.6,5.1,0.9,8.5,0.9c2.3-1.1,4.5-1.4,6.8-0.9c2.3,0.6,4.5,0.9,6.8,0.9l8.5,1.7h8.5
			c2.3,0,6.2,0.6,11.9,1.7c5.7,1.1,9.6,2.8,11.9,5.1c3.4-1.1,7.4-0.6,11.9,1.7c1.1,1.1,3.1,1.7,5.9,1.7s4.8,0.6,5.9,1.7
			c1.1,2.3,2.5,3.1,4.2,2.5c1.7-0.6,3.1-0.3,4.2,0.9c2.3,2.3,4.8,3.4,7.6,3.4c2.8,0,5.4,0.6,7.6,1.7c1.1,0,2.3,0.6,3.4,1.7
			c1.1,1.1,3.4,1.7,6.8,1.7c2.3,0,3.9,0.6,5.1,1.7s2.8,1.7,5.1,1.7c2.3,1.1,4.2,2,5.9,2.5c1.7,0.6,3.1,2,4.2,4.2
			c5.7,1.1,10.7,1.1,15.3,0c9,5.6,15.8,9.6,20.3,11.9c1.1,0,2.8,0.9,5.1,2.5c2.3,1.7,4.5,2.5,6.8,2.5c4.5,0,8.5,1.7,11.9,5.1
			c1.1,1.1,3.1,1.7,5.9,1.7c2.8,0,5.4,0.6,7.6,1.7c1.1,2.3,3.1,3.4,5.9,3.4s4.8,0.6,5.9,1.7c2.3,1.1,4.5,2.6,6.8,4.2
			c2.3,1.7,5.1,2,8.5,0.9l25.4,15.3c0,1.1,1.4,2.3,4.2,3.4c2.8,1.1,4.8,2.3,5.9,3.4c7.9,0,13,1.1,15.3,3.4c2.3,2.3,4.8,4.2,7.6,5.9
			c2.8,1.7,4.8,3.7,5.9,5.9l17,3.4c1.1,1.1,6.2,4,15.3,8.5c1.1,1.1,2.8,2.3,5.1,3.4c2.3,1.1,4,2.3,5.1,3.4c3.4,1.1,7.3,1.1,11.9,0
			c4.5-1.1,6.8-3.4,6.8-6.8c1.1-2.3,1.7-4.8,1.7-7.6s1.1-5.9,3.4-9.3c2.3-2.3,3.7-5.1,4.2-8.5c0.6-3.4,1.4-5.6,2.6-6.8
			c2.3-2.3,3.4-4.5,3.4-6.8c0-1.1,0.6-2.5,1.7-4.2c1.1-1.7,1.7-3.1,1.7-4.2c0-1.1,0.3-2.5,0.8-4.2c0.6-1.7,2-3.7,4.2-5.9l8.5-15.3
			c0-2.3,1.1-5.1,3.4-8.5c2.3-3.4,4-6.2,5.1-8.5V473c-1.1-4.5,0-8.5,3.4-11.9l6.8-18.7v-5.1c0-11.3,1.1-19.2,3.4-23.7
			c1.1-2.3,1.7-5.1,1.7-8.5c0-3.4,0.6-5.1,1.7-5.1c1.1-3.4,2.5-5.9,4.2-7.6c1.7-1.7,3.1-4.2,4.2-7.6c-1.1-2.3-2-7.3-2.6-15.3
			c-0.6-7.9-0.8-20.9-0.8-39c-1.1-1.1-1.7-2.5-1.7-4.2c0-1.7,0.6-2.5,1.7-2.5c1.1-1.1,1.4-3.7,0.8-7.6c-0.6-3.9,0.3-7.1,2.6-9.3
			l-3.4-3.4c-2.3,0-3.4-1.7-3.4-5.1c1.1-1.1,2-2.8,2.5-5.1c0.6-2.3,1.4-4.5,2.5-6.8c2.3-2.3,2.3-3.4,0-3.4c-2.3-3.4-2.3-6.2,0-8.5
			c2.3-2.3,3.4-3.9,3.4-5.1v-15.3c0-2.3-1.1-4-3.4-5.1c-1.1-2.3-0.9-4.8,0.9-7.6c1.7-2.8,1.4-5.4-0.9-7.6c3.4-5.6,5.1-9.6,5.1-11.9
			v-3.4c0-3.4-0.9-6.8-2.6-10.2c-1.7-3.4-4.8-5.6-9.3-6.8v-3.4c0-2.3-1.1-3.9-3.4-5.1c-2.3-1.1-4-2.3-5.1-3.4l-10.2-8.5
			c0-3.4-1.1-6.2-3.4-8.5c0-3.4-0.6-5.1-1.7-5.1c-2.3-2.3-3.4-6.2-3.4-11.9c-2.3-3.4-5.1-6.2-8.5-8.5c0-2.3-0.3-5.1-0.9-8.5
			c-0.6-3.4-0.3-6.8,0.9-10.2c0-9-4-13.6-11.9-13.6c-2.3,0-3.4-1.1-3.4-3.4c0-1.1-0.3-2.5-0.9-4.2c-0.6-1.7-0.9-4.2-0.9-7.6
			c3.4-2.3,5.1-5.1,5.1-8.5c0-2.3-0.6-4.5-1.7-6.8c-1.1-2.3-1.1-5.1,0-8.5l-3.4-5.1c0-1.1-0.6-2.3-1.7-3.4c-1.1-2.3-2-5.1-2.6-8.5
			c-0.6-3.4-1.4-5.6-2.5-6.8c0-1.1-0.6-2.2-1.7-3.4c-1.1-1.1-2.3-1.7-3.4-1.7c0,1.1-0.6,2-1.7,2.5c-1.1,0.6-1.7,1.4-1.7,2.5
			l-5.1-5.1V44v-3.4c0-2.3-0.6-5.4-1.7-9.3c-1.1-3.9-1.7-7.6-1.7-11c-3.4,0-5.9-0.6-7.6-1.7c-1.7-1.1-3.1-1.7-4.2-1.7
			s-3.1,0.3-5.9,0.9c-2.8,0.6-4.8,0.3-5.9-0.9h-11.9h-697c-3.4,2.3-7.4,2.3-11.9,0c-7.9,0-13,1.7-15.3,5.1c-3.4,1.1-6.5,3.7-9.3,7.6
			c-2.8,4-5.4,6.5-7.6,7.6c-9.1,6.8-16.4,10.2-22,10.2c-2.3,0-4,1.1-5.1,3.4c-5.6,5.6-9,8.5-10.2,8.5L95.5,66
			c2.3,2.3,1.7,5.1-1.7,8.5c-2.3,0-3.4,1.7-3.4,5.1c-1.1,4.5-5.1,11.9-11.9,22c0,1.1-0.3,3.1-0.9,5.9c-0.6,2.8-2,5.9-4.2,9.3
			c-1.1,1.1-2,3.1-2.5,5.9c-0.6,2.8-1.4,4.8-2.5,5.9c-6.8,7.9-10.2,15.8-10.2,23.7c0,2.3-1.1,4.5-3.4,6.8c-2.3,2.3-2.8,4.5-1.7,6.8
			c0,2.3-1.1,4.5-3.4,6.8c-1.1,3.4-3.4,5.1-6.8,5.1v3.4c4.5,7.9,6.8,13,6.8,15.3v5.1c-1.1,3.4-2.3,7.9-3.4,13.6
			c-1.1,5.6-2.8,9.6-5.1,11.9c-2.3,2.3-3.4,5.1-3.4,8.5c0,2.3-1.1,4.5-3.4,6.8c-1.1,1.1-1.1,3.1,0,5.9c1.1,2.8,1.1,4.8,0,5.9
			c0,1.1-0.3,1.7-0.9,1.7c-0.6,0-1.4,0-2.5,0c2.3,2.3,3.4,4.5,3.4,6.8c0,3.4,0.6,6.8,1.7,10.2c1.1,3.4,1.7,6.8,1.7,10.2
			c0,31.7-2.8,123.8-8.5,276.4c-10.2,307.5-14.7,462.9-13.6,466.3c1.1,1.1,1.1,2.8,0,5.1c-1.1,2.3-1.1,3.4,0,3.4l1.7,13.6
			c0,3.4-0.6,5.6-1.7,6.8c0,2.3,0.8,4.8,2.5,7.6c1.7,2.8,2.6,5.4,2.6,7.6c0,2.3-0.3,4.5-0.9,6.8c-0.6,2.3-0.3,4.5,0.9,6.8
			c0,1.1,0.6,3.7,1.7,7.6c1.1,4,0.6,8.2-1.7,12.7c0,1.1,0.6,1.7,1.7,1.7v1.7c-1.1,2.3-1.4,4.2-0.9,5.9c0.6,1.7,0.9,3.1,0.9,4.2
			c1.1,1.1,1.4,2.6,0.8,4.2c-0.6,1.7-0.8,3.7-0.8,5.9c0,2.3,0.8,5.1,2.5,8.5c1.7,3.4,0.8,6.8-2.5,10.2c2.3,7.9,3.9,12.4,5.1,13.6
			c1.1,1.1,1.1,3.4,0,6.8s-1.1,6.2,0,8.5c0,3.4,1.1,7.4,3.4,11.9c0,1.1-0.6,2.8-1.7,5.1c-1.1,2.3-1.7,4.5-1.7,6.8
			c0,1.1,0.6,2.5,1.7,4.2c1.1,1.7,1.7,3.1,1.7,4.2c3.4-2.3,7.4-3.4,11.9-3.4c3.4-1.1,5.9-1.4,7.6-0.8c1.7,0.6,3.1,0.8,4.2,0.8
			c6.8-1.1,11.3-1.1,13.6,0h993.7c1.1,0,3.1-0.3,5.9-0.8c2.8-0.6,4.8-0.3,5.9,0.8c1.1,1.1,3.1,1.4,5.9,0.9c2.8-0.6,4.8-0.9,5.9-0.9
			h3.4c3.4,1.1,6.2,1.4,8.5,0.9c2.3-0.6,3.9-0.9,5.1-0.9l3.4-3.4c-2.3-2.3-2.6-5.4-0.9-9.3C1107,1187.1,1107.3,1184.6,1106.2,1183.5
			z M363.4,233.9v-1.7c2.3-1.1,4.8-2.5,7.6-4.2c2.8-1.7,4.8-3.1,5.9-4.2h11.9h10.2c1.1,0,2-0.6,2.5-1.7c0.6-1.1,1.4-2.3,2.5-3.4h3.4
			c20.3-3.4,40.7-8.5,61-15.3l110.2-5.1c1.1,0,3.1,0,5.9,0c2.8,0,5.4-0.6,7.6-1.7c4.5,0,8.5-1.1,11.9-3.4c2.3,0,3.4,1.1,3.4,3.4
			c1.1,0,3.1-0.3,5.9-0.9c2.8-0.6,4.8-0.3,5.9,0.9l111.9,30.5c1.1,2.3,3.1,3.4,5.9,3.4c2.8,0,5.4,0.6,7.6,1.7
			c3.4,3.4,8.5,5.1,15.3,5.1c2.3,0,5.1,2.3,8.5,6.8c3.4,4.5,6.2,7.4,8.5,8.5c2.3,1.1,5.7,2.3,10.2,3.4c4.5,1.1,7.9,2.8,10.2,5.1v8.5
			l-1.7,3.4c-1.1,0-2.8-0.8-5.1-2.5c-2.3-1.7-4-2-5.1-0.9c-1.1-1.1-2.8-1.7-5.1-1.7c-2.3,0-4,0.6-5.1,1.7c-2.3,1.1-5.1,0.9-8.5-0.9
			c-3.4-1.7-5.6-2-6.8-0.9c-1.1,1.1-3.1,1.4-5.9,0.9c-2.8-0.6-4.8-0.9-5.9-0.9l-281.5-16.9c-1.1,0-3.4-0.8-6.8-2.5
			c-3.4-1.7-6.2-2-8.5-0.9c-1.1-1.1-2.5-1.4-4.2-0.9c-1.7,0.6-3.1,0.9-4.2,0.9c-1.1,0-2.3-0.6-3.4-1.7c-1.1-1.1-2.8-1.7-5.1-1.7
			c-1.1-1.1-3.4-1.7-6.8-1.7c-3.4,0-5.7-0.6-6.8-1.7c-3.4,2.3-6.5,2.6-9.3,0.9c-2.8-1.7-4.8-2.6-5.9-2.6c-1.1,0-2.5-0.3-4.2-0.8
			c-1.7-0.6-4.2-0.3-7.6,0.8c-1.1-3.4-2.5-4.5-4.2-3.4c-1.7,1.1-3.1,2.8-4.2,5.1c-4.5,0-7.9-0.6-10.2-1.7c0-1.1-0.9-1.7-2.5-1.7
			c-1.7,0-3.1,0-4.2,0h-5.1V233.9z M889.1,876.5h-11.9c-3.4-2.3-9-3.4-17-3.4c-3.4,1.1-6.5,1.4-9.3,0.9c-2.8-0.6-4.8-0.9-5.9-0.9
			s-2.3-0.3-3.4-0.8c-1.1-0.6-2.3-0.3-3.4,0.8c-5.7,0-10.2-0.6-13.6-1.7c-1.1,0-2.6,0.3-4.2,0.9c-1.7,0.6-3.7,0.3-5.9-0.9
			l-191.6,6.8h-17c-1.1,1.1-3.1,1.1-5.9,0c-2.8-1.1-5.4-1.1-7.6,0c-1.1,0-2.8-0.3-5.1-0.8c-2.3-0.6-4.5-0.3-6.8,0.8
			c-2.3-2.3-4.5-3.4-6.8-3.4h-8.5l-167.9,1.7c-2.3,1.1-4.8,1.4-7.6,0.9c-2.8-0.6-5.4-0.9-7.6-0.9c-3.4,2.3-8.5,3.4-15.3,3.4
			c-2.3,1.1-4.8,2.3-7.6,3.4c-2.8,1.1-5.4,2.3-7.6,3.4c-2.3,0-3.4-1.1-3.4-3.4v-6.8c2.3,0,4.2-0.8,5.9-2.5c1.7-1.7,3.7-2.5,5.9-2.5
			c1.1,0,2.2-0.8,3.4-2.5s2.3-2.6,3.4-2.6c0-1.1,1.1-1.7,3.4-1.7c2.3,0,3.4-0.6,3.4-1.7c1.1-1.1,3.4-2.2,6.8-3.4
			c3.4-1.1,5.1-2.8,5.1-5.1c1.1,0,2-0.6,2.5-1.7c0.6-1.1,2-1.7,4.2-1.7c2.3,0,4.8-1.4,7.6-4.2s4.8-4.2,5.9-4.2
			c6.8,0,11.3-1.7,13.6-5.1l32.2-8.5c87-24.9,131.1-35.6,132.3-32.2l8.5-1.7c2.3-1.1,4.5-1.4,6.8-0.9c2.3,0.6,4.5,0.9,6.8,0.9
			c1.1,0,2.8-0.3,5.1-0.9c2.3-0.6,3.9-0.3,5.1,0.9c0,1.1,0.6,1.7,1.7,1.7c1.1,0,1.7-0.6,1.7-1.7c3.4-1.1,7.4-1.4,11.9-0.9
			c4.5,0.6,8.5,0.3,11.9-0.9c22.6,4.5,63.9,14.1,123.8,28.8c59.9,14.7,92.7,24.3,98.4,28.8c2.3,0,3.4,0.6,3.4,1.7l8.5,8.5
			c1.1,1.1,2.5,2,4.2,2.5c1.7,0.6,3.1,2,4.2,4.2c2.2,0,3.4,1.7,3.4,5.1V876.5z M2303.4,1132.6c0-4.5-0.3-9.6-0.9-15.2
			c-0.6-5.6-0.3-11.9,0.9-18.7l-3.4-493.5l1.7-3.4L2300,590c0-3.4,0.3-7.1,0.8-11c0.6-4,0.3-8.2-0.8-12.7c0-3.4,0.3-8.5,0.8-15.3
			c0.6-6.8,0.3-13-0.8-18.7c0-1.1-0.3-2.5-0.9-4.2c-0.6-1.7-2.6-2.6-5.9-2.6l-5.1-3.4c1.1-2.3,0.6-3.4-1.7-3.4
			c1.1-1.1,2.3-2.2,3.4-3.4c1.1-1.1,1.1-2.3,0-3.4c0-1.1-0.6-2.8-1.7-5.1c-1.1-2.3-2.3-3.9-3.4-5.1l-3.4-3.4c0-6.8-4-11.9-11.9-15.3
			c-2.3,0-3.4-1.7-3.4-5.1h3.4c-2.3-3.4-6.2-6.2-11.9-8.5l3.4-6.8c-2.3-3.4-0.6-7.3,5.1-11.9l-8.5-6.8c-2.3-1.1-5.7-1.7-10.2-1.7
			v-1.7c1.1-1.1,1.7-2.2,1.7-3.4s0.6-1.7,1.7-1.7c2.3-5.6,1.1-9.6-3.4-11.9c-1.1-3.4-2.3-5.4-3.4-5.9c-1.1-0.6-2.3-1.4-3.4-2.5
			c-1.1,0-2.3-0.6-3.4-1.7c-1.1-1.1-1.7-2.3-1.7-3.4h-3.4c-2.3-2.3-7.9-4.5-16.9-6.8c-3.4-2.3-5.1-4.5-5.1-6.8h-8.5
			c0-3.4-1.7-5.6-5.1-6.8c-2.3-1.1-3.4-3.4-3.4-6.8c1.1-2.3,0-4.5-3.4-6.8v-1.7l3.4-1.7c-1.1,0-2.3-0.6-3.4-1.7
			c-1.1-1.1-2.3-1.1-3.4,0v-11.9c2.3-2.3,1.1-3.4-3.4-3.4c-2.3,0-3.4-1.7-3.4-5.1v-5.1l10.2-3.4v-1.7c0-3.4,1.1-5.1,3.4-5.1l1.7-3.4
			c0-1.1-0.3-2-0.9-2.5c-0.6-0.6-1.4-0.9-2.5-0.9l-3.4-1.7c1.1-1.1,1.7-3.1,1.7-5.9s0-5.4,0-7.6c1.1-1.1,1.4-2.8,0.8-5.1
			c-0.6-2.3-2-4-4.2-5.1c-3.4-3.4-5.1-7.9-5.1-13.6v-5.1c-4.5-2.3-6.8-3.9-6.8-5.1c-1.1-5.6-5.1-10.7-11.9-15.3
			c-3.4,0-5.1-1.7-5.1-5.1v-6.8c-3.4-5.6-6.2-9-8.5-10.2l-3.4-1.7c0-2.3-2.3-5.1-6.8-8.5c-5.7,0-8.5-3.4-8.5-10.2
			c0-2.3-1.1-4-3.4-5.1c-3.4-1.1-5.1-3.9-5.1-8.5c-2.3-4.5-4.5-6.8-6.8-6.8l-8.5-8.5v-1.7c0-2.3-0.3-4.2-0.9-5.9
			c-0.6-1.7-2-2.5-4.2-2.5l-3.4-10.2c-3.4-3.4-4.5-7.3-3.4-11.9c-3.4-1.1-5.6-3.4-6.8-6.8c0-3.4-0.6-5.1-1.7-5.1
			c-1.1,0-2.3-0.8-3.4-2.5c-1.1-1.7-1.7-3.1-1.7-4.2h-3.4l-8.5-6.8c-1.1-1.1-3.4-1.7-6.8-1.7l3.4-3.4c-1.1,0-2.8-0.3-5.1-0.9
			c-2.3-0.6-4,0.3-5.1,2.5v-1.7v-11.9l-5.1-1.7c-2.3-1.1-3.4-2.3-3.4-3.4c-2.3-5.6-5.1-9.6-8.5-11.9c-2.3,0-3.4-1.1-3.4-3.4
			c0-1.1-0.6-2.3-1.7-3.4c-1.1-1.1-2.3-1.7-3.4-1.7l-6.8-3.4l-5.1-6.8l-6.8-8.5l-11.9-13.6v-1.7c0-3.4-2.3-5.1-6.8-5.1
			c-3.4-2.3-4.5-4.5-3.4-6.8l-1.7-11.9c-1.1,0-2.3,0-3.4,0c-1.1,0-2.3-0.6-3.4-1.7c-2.3-4.5-3.4-7.3-3.4-8.5c1.1-1.1,1.1-2.3,0-3.4
			c-1.1-1.1-2.3-1.7-3.4-1.7c-7.9-2.3-19.2-3.4-33.9-3.4h-8.5h-20.4h-6.8h-351c-11.3,1.1-28.3,1.7-50.9,1.7
			c-1.1-1.1-3.4-0.9-6.8,0.9c-3.4,1.7-5.6,2.5-6.8,2.5h-22c-3.4,0-7.9,1.7-13.6,5.1l1.7,6.8l6.8,3.4c-3.4,2.3-4,4.5-1.7,6.8
			c1.1,2.3,0.6,4-1.7,5.1l-3.4,3.4l-1.7,10.2c-1.1,0-1.4,0.9-0.9,2.5c0.6,1.7,1.4,2.5,2.5,2.5c1.1,1.1,2.3,1.4,3.4,0.9
			c1.1-0.6,1.7-0.3,1.7,0.9c1.1,1.1,2.8,1.7,5.1,1.7c-2.3,2.3-4.5,2.8-6.8,1.7c0-1.1-1.7-1.7-5.1-1.7c-1.1,0-1.4,0.6-0.9,1.7
			c0.6,1.1,0.3,2.3-0.8,3.4c0,3.4-0.9,5.9-2.6,7.6c-1.7,1.7-3.1,2.5-4.2,2.5c-1.1-1.1-2.8-0.6-5.1,1.7l-5.1,5.1
			c-4.5,0-7.9,1.1-10.2,3.4c-1.1,1.1-1.7,4-1.7,8.5c1.1-1.1,3.4-1.7,6.8-1.7c0-1.1,0.6-1.7,1.7-1.7s2.3,0,3.4,0
			c0-2.3,1.1-3.4,3.4-3.4l1.7,3.4c1.1,0,2.8,1.1,5.1,3.4h-5.1l-1.7-3.4c-2.3,1.1-3.4,2.8-3.4,5.1c-1.1,0-2,0.6-2.6,1.7
			c-0.6,1.1-1.4,1.7-2.5,1.7c0,1.1-1.1,2.8-3.4,5.1c-2.3,2.3-3.4,4.5-3.4,6.8l1.7,3.4h1.7c1.1-1.1,2.5-1.1,4.2,0
			c1.7,1.1,2,2.3,0.9,3.4c-1.1,1.1-2,2.6-2.6,4.2c-0.6,1.7-1.4,2.5-2.5,2.5c0,6.8-1.7,11.3-5.1,13.6c-1.1,0-1.7,0.9-1.7,2.5
			c0,1.7-0.6,2.5-1.7,2.5l6.8,6.8c2.3-1.1,3.7-1.1,4.2,0c0.6,1.1,0.9,2.8,0.9,5.1h-3.4l-5.1,6.8c-1.1,0-2,0.3-2.5,0.9
			c-0.6,0.6-0.3,1.4,0.9,2.5c1.1,1.1,1.7,2.6,1.7,4.2c0,1.7,0.6,3.1,1.7,4.2h1.7l1.7,5.1h5.1l-5.1,8.5l5.1,1.7
			c2.3,2.3,3.4,4,3.4,5.1h-5.1v3.4l5.1,5.1v8.5c-1.1,0-1.4,2.8-0.9,8.5c0.6,5.6,0.9,9.6,0.9,11.9c0,2.3,0,7.1,0,14.4
			c0,7.4,0.6,11,1.7,11s2.3,1.1,3.4,3.4c2.3,5.7,2.3,10.2,0,13.6v3.4c-1.1,1.1-1.4,2-0.9,2.5c0.6,0.6,1.4,0.9,2.6,0.9l11.9,3.4
			l1.7,5.1c-4.5,4.5-4.5,8.5,0,11.9c-2.3,1.1-3.4,2.3-3.4,3.4c0,1.1,0.6,2.8,1.7,5.1c1.1,3.4,1.1,6.8,0,10.2c0,2.3-0.6,4-1.7,5.1
			l10.2,17l-1.7,5.1c1.1,0,1.7,1.1,1.7,3.4l-3.4,3.4c0,4.5,0.6,7.9,1.7,10.2c0,6.8-1.1,11.3-3.4,13.6c-2.3,2.3-4.5,3.4-6.8,3.4
			c0,1.1-0.6,2.3-1.7,3.4c-1.1,1.1-1.1,2.3,0,3.4c0,3.4-1.1,5.1-3.4,5.1l-6.8,3.4c1.1,4.5,0,7.9-3.4,10.2
			c-6.8,2.3-11.3,4.5-13.6,6.8c-1.1,1.1-1.7,2.6-1.7,4.2c0,1.7,0.6,2.5,1.7,2.5c3.4,1.1,5.1,4,5.1,8.5v8.5c-2.3,5.6-5.9,11-11,16.1
			c-5.1,5.1-8.8,8.8-11,11c-1.1,1.1-2.8,4-5.1,8.5c0,2.3-1.1,3.4-3.4,3.4c-2.3,2.3-4,5.1-5.1,8.5c0,1.1,0,2,0,2.5
			c0,0.6-0.6,0.9-1.7,0.9c-1.1,1.1-3.4,3.1-6.8,5.9c-3.4,2.8-5.7,5.9-6.8,9.3c-4.5,4.5-5.7,8.5-3.4,11.9c0,2.3,0.6,4,1.7,5.1
			c1.1,1.1,1.7,2.3,1.7,3.4c-2.3,1.1-4.2,2.8-5.9,5.1c-1.7,2.3-2,4.5-0.8,6.8l-6.8,40.7c-1.1,1.1-1.1,2,0,2.6c1.1,0.6,1.1,1.4,0,2.5
			c0,1.1,0.6,1.7,1.7,1.7s1.7,0.6,1.7,1.7l-3.4,3.4c0,2.3-2.3,3.4-6.8,3.4c0,1.1-0.3,2-0.9,2.6c-0.6,0.6-1.4,0.8-2.5,0.8
			c0,1.1,0.6,2,1.7,2.6c1.1,0.6,1.7,1.4,1.7,2.5c0,4.5-0.3,7.4-0.9,8.5c-0.6,1.1,0.3,0,2.5-3.4c0,5.6-2.3,9-6.8,10.2h-5.1
			c-5.7,0-7.9,2.8-6.8,8.5l-1.7,1.7c-4.5-2.3-7.4-1.1-8.5,3.4c-3.4,4.5-6.8,6.8-10.2,6.8c-2.3,1.1-4.5,2.8-6.8,5.1
			c-2.3,2.3-4,3.4-5.1,3.4l-8.5,8.5c-2.3,2.3-4.2,6.2-5.9,11.9c-1.7,5.6-3.1,9-4.2,10.2v5.1c4.5,4.5,4.5,7.9,0,10.2v5.1
			c0,1.1,0.3,2.5,0.9,4.2c0.6,1.7-0.3,3.7-2.5,5.9v3.4c1.1,4.5-0.6,6.8-5.1,6.8c-3.4,1.1-5.1,5.7-5.1,13.6
			c-5.7,5.6-10.2,8.5-13.6,8.5l-1.7-1.7l-3.4-1.7l-3.4,1.7c1.1,2.3,0,5.1-3.4,8.5l-1.7,3.4c0,3.4-2.8,6.2-8.5,8.5
			c-2.3,0-3.4,1.1-3.4,3.4c0,4.5-2.8,7.9-8.5,10.2l-1.7,3.4c1.1,2.3,1.1,4,0,5.1c-1.1,1.1-2.3,1.7-3.4,1.7l-6.8,3.4
			c-1.1,1.1-3.1,2.6-5.9,4.2c-2.8,1.7-4.2,3.7-4.2,5.9l1.7,5.1v3.4c-2.3,4.5-2.8,7.9-1.7,10.2l-1.7,6.8v10.2
			c-1.1,3.4-1.4,6.8-0.9,10.2c0.6,3.4,0.3,6.8-0.8,10.2c0,6.8-0.6,11.9-1.7,15.3c0,14.7-1.1,26-3.4,33.9v42.4
			c-2.3,9.1-2.3,17,0,23.7l-1.7,25.4v6.8v28.8l-3.4,50.9v15.3l-1.7,11.9l1.7,30.5v3.4l10.2,25.4v1.7l6.8,13.6
			c1.1,1.1,2.2,1.4,3.4,0.9s2.3-0.3,3.4,0.8h3.4c1.1,1.1,2.2,2.6,3.4,4.2c1.1,1.7,2.8,3.7,5.1,5.9c5.7,1.1,152.6,1.7,440.9,1.7
			c2.3,0,4-1.7,5.1-5.1c0-15.8,2.8-27.7,8.5-35.6c1.1-9,3.9-17.5,8.5-25.4c1.1-2.3,2.3-5.4,3.4-9.3c1.1-3.9,1.7-7.6,1.7-11l6.8-15.3
			c1.1-3.4,2.2-7.1,3.4-11c1.1-3.9,2.3-7.6,3.4-11c2.3-9,5.1-16.9,8.5-23.7l47.5-164.5c0-2.3,2.3-10.2,6.8-23.7l13.6-64.4
			c3.4-18.1,5.9-32.5,7.6-43.2c1.7-10.7,3.7-18.9,5.9-24.6l3.4-27.1c2.3-9,3.4-14.7,3.4-16.9l5.1-20.4l3.4-22
			c1.1-4.5,2.8-11,5.1-19.5c2.3-8.5,3.9-16.7,5.1-24.6l1.7,54.3c0,12.4-0.6,22-1.7,28.8c0,15.8-0.6,27.7-1.7,35.6
			c0,3.4-0.6,6.2-1.7,8.5c-2.3,7.9-3.4,19.8-3.4,35.6l-3.4,20.3l-37.3,225.5l-5.1,23.7c0,4.5-2.3,11.3-6.8,20.3
			c0,4.5-0.9,9.6-2.6,15.3c-1.7,5.7-2.5,9.6-2.5,11.9c-5.7,19.2-8.5,29.4-8.5,30.5l-10.2,35.6c0,3.4-0.6,6.8-1.7,10.2
			c-1.1,3.4-2.3,6.2-3.4,8.5l-6.8,27.1l-1.7,3.4c2.3,2.3,5.1,3.4,8.5,3.4h17h30.5l446,1.7c6.8,1.1,17.2,0.8,31.4-0.9
			c14.1-1.7,24.6-2,31.4-0.8h3.4c4.5,0,6.8-2.3,6.8-6.8v-11.9c1.1-6.8,1.1-14.1,0-22V1132.6z M1986.3,281.4c0,1.1-0.3,2.8-0.9,5.1
			c-0.6,2.3-2.6,3.4-5.9,3.4l-17,1.7l-86.5,6.8c-37.3,3.4-57.1,5.6-59.3,6.8h-1.7c-5.7-1.1-11.9-1.7-18.7-1.7l-139,1.7
			c-5.6,0-9.6-1.1-11.9-3.4l-5.1-1.7c-1.1-1.1-2.8-1.4-5.1-0.8c-2.3,0.6-4-0.3-5.1-2.6l3.4-1.7l-3.4-5.1c0-3.4,1.1-5.1,3.4-5.1
			l-1.7-1.7v-6.8c0-4.5-0.6-6.8-1.7-6.8c-5.7-2.3-5.7-4,0-5.1h1.7c1.1,1.1,2.8,1.1,5.1,0c0-3.4,1.1-5.1,3.4-5.1c1.1-1.1,2-2,2.5-2.5
			c0.6-0.6,0.9-1.4,0.9-2.5c1.1-1.1,2.8-1.7,5.1-1.7c2.3,0,3.9-0.6,5.1-1.7c3.4-1.1,7.3-1.7,11.9-1.7c11.3,2.3,19.8,3.4,25.4,3.4
			l186.5-27.1c0,1.1,6.2,1.7,18.7,1.7l20.3,15.3c5.7,2.3,11.9,5.1,18.7,8.5c6.8,3.4,11.9,6.2,15.3,8.5l13.6,8.5l13.6,6.8l5.1,1.7
			c1.1,0,2.2,0.3,3.4,0.9s2.8,0.8,5.1,0.8C1989.1,280.2,1987.4,281.4,1986.3,281.4z M3542.9,1159.7c0-1.1-0.3-3.4-0.9-6.8
			c-0.6-3.4-0.8-8.5-0.8-15.3c0-2.3,0.3-5.1,0.8-8.5c0.6-3.4,0.3-7.9-0.8-13.6c-1.1-4.5-1.4-8.5-0.9-11.9c0.6-3.4,0.3-7.4-0.9-11.9
			c-1.1-2.3-1.7-5.6-1.7-10.2c0-4.5-0.6-7.9-1.7-10.2v-22c-1.1-4.5-1.4-9.6-0.9-15.3c0.6-5.6,0.3-11.3-0.8-17
			c-1.1-3.4-1.1-6.8,0-10.2c1.1-3.4,1.1-7.4,0-11.9c-1.1-1.1-1.4-3.1-0.9-5.9c0.6-2.8,0.9-5.4,0.9-7.6c-1.1-3.4-1.7-7.9-1.7-13.6
			c-1.1-3.4-1.4-8.5-0.9-15.3c0.6-6.8,0.9-12.4,0.9-17c-1.1-3.4-1.4-7.1-0.9-11c0.6-3.9,0.9-7.1,0.9-9.3c-1.1-2.3-1.7-5.4-1.7-9.3
			c0-4-0.6-6.5-1.7-7.6c-1.1-2.3-0.9-5.4,0.9-9.3c1.7-3.9,2.5-7.6,2.5-11v-8.5c-13.6-3.4-27.1-5.1-40.7-5.1l-1.7-1.7
			c-4.5-2.3-10.5-3.9-17.8-5.1c-7.4-1.1-13.3-2.3-17.8-3.4c-11.3-4.5-19.2-6.8-23.7-6.8c-24.9-7.9-45.8-15.3-62.7-22
			c-6.8-4.5-15.6-9-26.3-13.6c-10.7-4.5-19.5-8.5-26.3-11.9c-15.8-5.6-31.7-14.1-47.5-25.4c-4.5-2.3-10.2-5.1-17-8.5
			c-6.8-3.4-11.9-6.8-15.3-10.2c-3.4-2.3-6.5-4.5-9.3-6.8c-2.8-2.3-5.4-4.5-7.6-6.8c-5.6-2.3-12.4-6.2-20.4-11.9
			c-7.9-5.6-14.1-9.6-18.7-11.9c-11.3-5.6-18.7-10.7-22-15.3l-32.2-22c-13.6-7.9-23.2-14.7-28.8-20.3c-4.5-4.5-12.4-10.2-23.7-17
			c-12.4-7.9-23.2-16.9-32.2-27.1l-18.7-10.2c-6.8-4.5-13-9-18.7-13.6c-5.6-4.5-11.3-8.5-17-11.9c-1.1,0-2.8-1.1-5.1-3.4
			c-2.3-2.3-3.9-4-5.1-5.1l-18.7-15.3c-5.7-4.5-12.7-9.3-21.2-14.4c-8.5-5.1-15-11-19.5-17.8c-4.5-4.5-10.2-9.3-17-14.4
			c-6.8-5.1-13.6-11-20.3-17.8c-2.3-1.1-5.7-5.1-10.2-11.9l37.3,17c13.6,9.1,28.3,17,44.1,23.7c5.7,3.4,9.6,5.7,11.9,6.8
			c6.8,2.3,14.4,5.9,22.9,11c8.5,5.1,15,8.8,19.5,11c17,7.9,35,17.5,54.3,28.8c4.5,2.3,10.2,4.8,17,7.6c6.8,2.8,14.7,5.4,23.7,7.6
			c9,5.7,21.5,12.7,37.3,21.2c15.8,8.5,28.3,16.1,37.3,22.9c2.3,1.1,5.4,2.3,9.3,3.4c3.9,1.1,8.2,3.4,12.7,6.8
			c3.4,1.1,6.8,2.8,10.2,5.1c3.4,2.3,6.8,4,10.2,5.1c2.3,1.1,5.1,3.1,8.5,5.9c3.4,2.8,6.2,4.2,8.5,4.2c2.3,2.3,4.8,4,7.6,5.1
			c2.8,1.1,4.8,2.8,5.9,5.1c3.4,0,6.2,0.6,8.5,1.7c2.3,1.1,4.5,1.7,6.8,1.7c5.7,2.3,12.4,6.2,20.3,11.9c7.9,5.6,15.3,10.2,22.1,13.6
			l11.9,5.1c13.6,3.4,22.6,9.1,27.1,17c4.5,2.3,11.6,5.1,21.2,8.5c9.6,3.4,16.1,6.2,19.5,8.5c7.9,2.3,17.2,5.9,28,11
			c10.7,5.1,19.5,8.8,26.3,11c7.9,0,13.6,1.7,17,5.1c4.5,1.1,11.3,4,20.4,8.5c10.2,4.5,19.2,7.4,27.1,8.5c2.3,0,5.1,0.3,8.5,0.9
			c3.4,0.6,7.9,2,13.6,4.2c1.1,2.3,2.5,2.8,4.2,1.7c1.7-1.1,2.5-2.8,2.5-5.1c-2.3-1.1-3.4-3.4-3.4-6.8v-37.3c0-11.3-0.6-18.7-1.7-22
			c-1.1-5.6-1.4-10.4-0.9-14.4c0.6-4,0.9-7.6,0.9-11c-1.1-2.3-1.4-4.8-0.9-7.6c0.6-2.8,0.9-4.8,0.9-5.9c-1.1-3.4-1.7-7.9-1.7-13.6
			c0-6.8-0.9-29.1-2.5-67c-1.7-37.9-3.7-98.6-5.9-182.3c-6.1-204-9.8-314.8-11.2-332.4c0.1-0.5,0.1-1.1,0.2-1.6
			c0.6-4.5,0.3-9.6-0.8-15.3V52.4l1.7-32.2l-5.1-5.1c-2.3,1.1-6.8,1.7-13.6,1.7h-15.3h-11.9H3431h-30.5l-18.7-1.7
			c-2.3,1.1-4.5,1.4-6.8,0.9c-2.3-0.6-4.5-0.3-6.8,0.8h-3.4c-3.4,1.1-6.8,1.1-10.2,0c-3.4-1.1-6.2-1.1-8.5,0h-527.4
			c-2.3,0-4.5-0.6-6.8-1.7c-2.3-1.1-4-1.1-5.1,0c-2.3,1.1-4.2,1.1-5.9,0c-1.7-1.1-3.1-1.1-4.2,0c-2.3,0-4,1.1-5.1,3.4
			c-1.1,2.3-2.8,3.4-5.1,3.4c-5.7-1.1-11.9,0-18.7,3.4c-5.7,5.6-8.5,10.7-8.5,15.3c-4.5,6.8-7.9,9.6-10.2,8.5l-3.4,1.7
			c-4.5,6.8-7.4,13.6-8.5,20.3c-2.3,0-6.2,2.3-11.9,6.8c-1.1,1.1-2.5,2-4.2,2.6c-1.7,0.6-3.1,1.4-4.2,2.5c1.1,2.3,3.4,3.4,6.8,3.4
			c-6.8,0-11.3,4.5-13.6,13.6c0,2.3-0.9,4.2-2.6,5.9c-1.7,1.7-3.7,3.1-5.9,4.2c-1.1,0-3.1,0.6-5.9,1.7c-2.8,1.1-5.4,3.4-7.6,6.8
			c-5.7,3.4-10.2,9.1-13.6,17l-5.1,15.3c-2.3,3.4-3.4,6.2-3.4,8.5c0,2.3,1.1,5.6,3.4,10.2c-3.4,2.3-6.2,5.7-8.5,10.2v13.6
			c0,2.3-1.1,4-3.4,5.1c-3.4,3.4-5.1,6.2-5.1,8.5c-1.1,1.1-2,2.3-2.5,3.4c-0.6,1.1-1.4,1.7-2.5,1.7c-3.4,0-6.2,1.1-8.5,3.4
			c-2.3,2.3-4,4-5.1,5.1l-1.7,1.7c-2.3-1.1-3.7-0.9-4.2,0.9c-0.6,1.7-1.4,2.5-2.5,2.5c-2.3,0-2.8,1.1-1.7,3.4c1.1,2.3,1.1,3.4,0,3.4
			c-2.3-1.1-4-1.4-5.1-0.9c-1.1,0.6-1.1,1.4,0,2.5c0,1.1-0.9,2.3-2.6,3.4c-1.7,1.1-2.5,2.3-2.5,3.4s0.6,2,1.7,2.5
			c1.1,0.6,1.7,2,1.7,4.2c-2.3,1.1-3.4,2.5-3.4,4.2c0,1.7-0.6,2.5-1.7,2.5c-3.4,2.3-5.9,4.8-7.6,7.6c-1.7,2.8-3.7,5.4-5.9,7.6
			c-4.5,4.5-6.8,10.7-6.8,18.7c0,5.6-1.1,8.5-3.4,8.5l-6.8,6.8c1.1,3.4,3.4,6.8,6.8,10.2c1.1,1.1,1.7,2.3,1.7,3.4s-0.6,2.8-1.7,5.1
			l-6.8,3.4c-1.1,2.3-2.3,4.5-3.4,6.8c-1.1,2.3-2.3,3.4-3.4,3.4c-2.3,0-3.4,2.3-3.4,6.8c0,3.4-1.1,6.8-3.4,10.2
			c0,1.1-0.6,2.3-1.7,3.4c-1.1,1.1-1.7,2.8-1.7,5.1c0,2.3-0.9,4-2.6,5.1c-1.7,1.1-3.1,1.7-4.2,1.7l-3.4,5.1
			c-3.4-2.3-5.9-3.4-7.6-3.4c-1.7,0-2.5,2.3-2.5,6.8c-1.1,1.1-2.8,3.4-5.1,6.8c-2.3,3.4-5.1,5.1-8.5,5.1c0,1.1-1.1,1.7-3.4,1.7
			c-2.3,0-3.9,1.1-5.1,3.4c0,2.3-0.9,5.4-2.5,9.3c-1.7,4-3.1,7.1-4.2,9.3c-1.1,2.3-2.8,5.1-5.1,8.5c-2.3,3.4-4.5,5.6-6.8,6.8
			c-1.1,2.3-1.7,5.7-1.7,10.2c0,4.5-0.6,7.9-1.7,10.2c-2.3,11.3-6.8,23.2-13.6,35.6c-1.1,3.4-2.5,6.2-4.2,8.5
			c-1.7,2.3-3.1,5.1-4.2,8.5c-1.1,1.1-1.7,3.4-1.7,6.8c0,3.4-1.1,5.6-3.4,6.8c0,3.4-0.9,7.6-2.6,12.7c-1.7,5.1-2.5,9.9-2.5,14.4
			l-3.4,11.9c-2.3,5.6-4.8,11.9-7.6,18.7c-2.8,6.8-7.1,14.7-12.7,23.7c-1.1,7.9-6.2,18.7-15.3,32.2c-1.1,5.7-5.7,16.4-13.6,32.2
			c-1.1,1.1-1.4,2.3-0.9,3.4c0.6,1.1,0.9,2.8,0.9,5.1c3.4,0,5.1,2.3,5.1,6.8c-1.1,2.3-2.3,4.2-3.4,5.9c-1.1,1.7-1.7,4.2-1.7,7.6
			l-1.7,1.7c-3.4,13.6-5.1,21.5-5.1,23.7c-1.1,10.2-3.4,18.7-6.8,25.4c0,1.1-0.9,3.1-2.5,5.9c-1.7,2.8-2,5.9-0.9,9.3
			c0,2.3-1.1,4.5-3.4,6.8c-2.3,2.3-2.8,4.5-1.7,6.8c-2.3,1.1-2.8,4-1.7,8.5v13.6v10.2l-1.7,11.9l1.7,308.6v13.6
			c0,1.1-0.3,3.4-0.9,6.8c-0.6,3.4-0.3,6.8,0.9,10.2c0,2.3,0.3,4.2,0.9,5.9c0.6,1.7,0.3,3.7-0.9,5.9c0,1.1,0.3,3.1,0.9,5.9
			c0.6,2.8,0.3,4.8-0.9,5.9c-1.1,6.8-1.4,12.4-0.9,17c0.6,4.5,0.9,7.9,0.9,10.2l15.3,1.7H2539h18.7c5.7-4.5,11.9-9.9,18.7-16.1
			c6.8-6.2,13.6-12.7,20.4-19.5l28.8-27.1l59.3-56c7.9-5.6,14.7-11.3,20.3-16.9c5.6-5.6,10.7-10.7,15.3-15.3l15.3-16.9l13.6-13.6
			l3.4-5.1l11.9-11.9l15.3-15.3l15.3-15.3c1.1-1.1,5.6-7.3,13.6-18.7l8.5-8.5l1.7-1.7l5.1-1.7c4.5-6.8,9.3-12.7,14.4-17.8
			c5.1-5.1,9.9-10.5,14.4-16.1l3.4-5.1l3.4-3.4l23.7-27.1l81.4-91.6c1.1,1.1,3.1,2.8,5.9,5.1c2.8,2.3,4.2,4.5,4.2,6.8l-1.7,3.4
			c0,3.4,0.6,6.5,1.7,9.3c1.1,2.8,1.7,5.9,1.7,9.3v3.4c-1.1,2.3-1.7,4.5-1.7,6.8c0,2.3,1.1,4.5,3.4,6.8c2.3,3.4,2.3,6.8,0,10.2
			c-1.1,0-1.7,2.3-1.7,6.8c-1.1,3.4-1.1,7.4,0,11.9c1.1,4.5,1.7,7.9,1.7,10.2c-2.3,2.3-2.8,5.4-1.7,9.3c1.1,4,3.4,7.1,6.8,9.3
			l-5.1,1.7c-3.4,12.4-6.2,20.4-8.5,23.7l3.4,44.1c2.3,1.1,3.4,8.5,3.4,22c0,12.4-1.1,19.2-3.4,20.4c0,1.1-0.3,2-0.9,2.5
			c-0.6,0.6-0.8,1.4-0.8,2.5c-1.1,4.5-1.7,11.3-1.7,20.4c0,1.1-0.9,2.5-2.5,4.2c-1.7,1.7-2.5,3.7-2.5,5.9c5.7,2.3,9.6,5.1,11.9,8.5
			c0,1.1-0.9,1.4-2.5,0.9c-1.7-0.6-2-0.3-0.9,0.9c0,3.4,1.1,6.2,3.4,8.5c0,4.5-1.7,6.8-5.1,6.8c-1.1,0-1.7,1.7-1.7,5.1
			c-2.3,4.5-3.4,9.6-3.4,15.3v6.8c-1.1,4.5,0.6,9.1,5.1,13.6c3.4,3.4,5.1,5.6,5.1,6.8c-3.4,3.4-2.3,6.2,3.4,8.5c4.5,0,4.5,2.3,0,6.8
			c-2.3,2.3-2.3,4.5,0,6.8c2.3,1.1,3.7,3.4,4.2,6.8c0.6,3.4,1.4,6.2,2.6,8.5c2.3,1.1,3.7,3.1,4.2,5.9c0.6,2.8,0.9,5.4,0.9,7.6
			c2.3,4.5,3.4,9.6,3.4,15.3c-1.1,1.1-1.7,2.8-1.7,5.1c0,2.3-0.6,4-1.7,5.1c-1.1,3.4-1.1,6.8,0,10.2c1.1,3.4,3.4,5.1,6.8,5.1
			c3.4-1.1,8.8-1.1,16.1,0c7.4,1.1,12.2,1.1,14.4,0H3470l50.9-1.7h11.9c4.5,0,9-1.7,13.6-5.1c-2.3-3.4-2.3-10.7,0-22
			C3541.8,1171.6,3540.7,1166.5,3542.9,1159.7z M2942.6,284.7c4.5,0,10.2-0.8,17-2.5c6.8-1.7,12.4-3.1,17-4.2
			c2.3,0,6.2,0.3,11.9,0.9c5.6,0.6,10.2-0.3,13.6-2.5l128.9,13.6c4.5,0,8.5-0.6,11.9-1.7h5.1c2.3,1.1,6.5,1.7,12.7,1.7
			c6.2,0,11,0.6,14.4,1.7c2.3,0,5.1-0.3,8.5-0.9c3.4-0.6,5.7-0.3,6.8,0.9c2.3,0,6.8,1.7,13.6,5.1c4.5,2.3,13.8,4.2,28,5.9
			c14.1,1.7,24,4.2,29.7,7.6l23.7,20.4c9,5.6,17.8,12.7,26.3,21.2c8.5,8.5,15.5,15,21.2,19.5c-3.4,1.1-9,1.7-17,1.7
			c-24.9-1.1-63.6-3.9-116.2-8.5c-52.6-4.5-82.2-8.5-89-11.9l-127.2-45.8c-1.1-1.1-3.1-1.7-5.9-1.7c-2.8,0-4.8-0.6-5.9-1.7
			c-4.5-1.1-9.6-2.5-15.3-4.2c-5.6-1.7-12.4-3.1-20.3-4.2l-10.2-5.1L2942.6,284.7z M4784.2,1159.7l-1.7-320.5c0-2.3-0.6-4-1.7-5.1
			l-23.7-18.7l-95-100c-2.3-4.5-6.2-9.6-11.9-15.3c-12.4-16.9-31.9-46.6-58.5-89c-26.6-42.4-44.4-72.6-53.4-90.7
			c-1.1-1.1-1.7-3.4-1.7-6.8c0-3.4-1.1-5.6-3.4-6.8v-8.5c0-2.3,0.6-3.4,1.7-3.4l13.6-5.1l1.7-3.4c0-1.1,1.1-2.5,3.4-4.2
			c2.3-1.7,5.1-2.5,8.5-2.5c2.3-2.3,3.4-5.1,3.4-8.5l6.8-5.1c1.1,0,2-0.3,2.5-0.8c0.6-0.6,1.4-0.3,2.5,0.8c2.3-1.1,4.5-3.1,6.8-5.9
			c2.3-2.8,4.5-4.8,6.8-5.9c1.1,0,2.8-1.1,5.1-3.4c3.4,1.1,5.1-0.6,5.1-5.1c1.1-3.4,6.2-5.1,15.3-5.1c2.3,0,3.4-0.6,3.4-1.7
			c1.1-2.3,3.1-3.9,5.9-5.1c2.8-1.1,4.8-2.3,5.9-3.4l11.9-8.5c1.1-1.1,1.7-2.8,1.7-5.1c0-3.4,1.1-5.1,3.4-5.1
			c4.5,0,12.4-2.8,23.7-8.5c3.4-2.3,7.4-4.5,11.9-6.8c4.5-2.3,7.9-5.1,10.2-8.5h3.4h5.1c1.1-1.1,2.5-1.7,4.2-1.7c1.7,0,3.1,0,4.2,0
			c4.5-2.3,7.3-3.4,8.5-3.4c3.4,2.3,7.4,1.1,11.9-3.4l10.2-5.1c2.3,0,4-0.6,5.1-1.7l6.8-3.4c2.3-4.5,6.2-5.6,11.9-3.4h3.4
			c0-1.1,2.8-2.8,8.5-5.1v-1.7v-10.2l-1.7-20.4v-18.7l5.1-176.3c1.1-67.8,2.3-105.7,3.4-113.6l-1.7-1.7c-3.4-1.1-7.9-1.7-13.6-1.7
			h-13.6h-11.9h-312l-1.7,1.7l-5.1,11.9l-27.1,49.2c-3.4,1.1-5.1,2.8-5.1,5.1c-1.1,2.3-3.1,5.7-5.9,10.2c-2.8,4.5-4.2,8.5-4.2,11.9
			c-1.1,1.1-3.4,5.1-6.8,11.9c-3.4,3.4-5.1,7.4-5.1,11.9c0,1.1-0.9,2.8-2.5,5.1c-1.7,2.3-3.1,4-4.2,5.1c0,1.1-0.9,3.1-2.5,5.9
			c-1.7,2.8-2,5.4-0.9,7.6c-1.1,1.1-2.3,2.8-3.4,5.1c-1.1,2.3-2.8,3.9-5.1,5.1c0,2.3-0.9,4.2-2.5,5.9c-1.7,1.7-2,3.7-0.9,5.9
			c-2.3,4.5-3.4,8.5-3.4,11.9l-6.8,8.5c0,1.1,0,2.8,0,5.1c0,2.3-1.7,4-5.1,5.1c0,1.1,0,2.8,0,5.1c0,2.3-1.1,4-3.4,5.1v10.2v10.2
			c0,2.3-1.7,4.5-5.1,6.8c-2.3,4.5-5.9,11.9-11,22c-5.1,10.2-7.6,17-7.6,20.4c-1.1,2.3-1.7,4.8-1.7,7.6c0,2.8-0.6,5.4-1.7,7.6
			c-1.1,1.1-2,3.4-2.5,6.8c-0.6,3.4-2,5.6-4.2,6.8c0,5.7-1.1,8.5-3.4,8.5c0,2.3-1.7,8.5-5.1,18.7l-5.1,15.3c1.1,2.3,0.8,4.5-0.9,6.8
			c-1.7,2.3-2.5,4.5-2.5,6.8c0,3.4-0.6,5.6-1.7,6.8c-2.3,1.1-3.4,3.4-3.4,6.8c0,3.4-0.6,5.1-1.7,5.1c-1.1,0-1.4,0.9-0.9,2.5
			c0.6,1.7,0.3,3.1-0.8,4.2c-2.3,3.4-3.4,6.8-3.4,10.2c0,4.5-1.1,7.4-3.4,8.5c1.1,1.1,0.8,2.5-0.9,4.2c-1.7,1.7-3.1,3.1-4.2,4.2
			c-2.3,4.5-4.8,9.1-7.6,13.6c-2.8,4.5-5.4,9.1-7.6,13.6c-3.4,3.4-7.4,8.5-11.9,15.3l-8.5,17l-1.7,1.7v6.8c-1.1,1.1-2.3,2.3-3.4,3.4
			c-1.1,1.1-2.3,2.8-3.4,5.1l-8.5,10.2c-1.1,2.3-3.1,5.1-5.9,8.5c-2.8,3.4-5.4,6.2-7.6,8.5c-2.3,1.1-5.7,4-10.2,8.5L4172,551
			c-1.1,2.3-3.1,4.5-5.9,6.8c-2.8,2.3-4.8,5.1-5.9,8.5c-2.3,1.1-5.1,3.7-8.5,7.6c-3.4,4-6.8,7.1-10.2,9.3l-28.8,25.4l-28.8,28.8
			c-9,4.5-14.7,7.9-17,10.2l-61,52.6H3994c2.2-1.1,4.5-3.9,6.8-8.5c2.3-4.5,4.5-7.3,6.8-8.5c0-2.3,1.4-4.2,4.2-5.9
			c2.8-1.7,3.7-3.7,2.5-5.9c3.4-2.2,18.4-21.5,44.9-57.6c26.6-36.2,44.9-62.2,55.1-78l3.4-6.8c2.3,0,3.9-1.4,5.1-4.2
			c1.1-2.8,2.3-4.8,3.4-5.9c1.1-1.1,1.7-2.2,1.7-3.4c0-1.1,0.6-2.3,1.7-3.4c2.3-1.1,3.9-3.1,5.1-5.9c1.1-2.8,2.8-4.8,5.1-5.9
			c3.4-3.4,5.1-7.9,5.1-13.6l10.2-20.4c1.1-2.3,2-4.2,2.5-5.9c0.6-1.7,1.4-3.7,2.5-5.9c1.1,0,2-0.8,2.5-2.5c0.6-1.7,1.4-3.1,2.6-4.2
			c0-1.1,0.8-2.5,2.5-4.2c1.7-1.7,2-3.7,0.9-5.9c-1.1-2.3-0.9-4.2,0.8-5.9c1.7-1.7,2.6-3.1,2.6-4.2l-1.7-3.4
			c-1.1-4.5-0.6-9,1.7-13.6l6.8-8.5l5.1-5.1c0-2.3,0.6-4.5,1.7-6.8c1.1-2.3,1.7-4.5,1.7-6.8c2.3-4.5,5.9-10.4,11-17.8
			s10.5-14.4,16.1-21.2c2.3-1.1,4.5-3.9,6.8-8.5c2.3-4.5,3.4-8.5,3.4-11.9c0-2.3,0.6-4.2,1.7-5.9c1.1-1.7,1.7-3.7,1.7-5.9
			c2.3-1.1,3.7-2.8,4.2-5.1c0.6-2.3,1.4-3.9,2.6-5.1c0-5.6,1.1-9,3.4-10.2c0-2.3,0.8-4.5,2.5-6.8c1.7-2.3,2.5-3.9,2.5-5.1
			c0-2.3,0.8-4.5,2.5-6.8c1.7-2.3,2.6-4.5,2.6-6.8c0-1.1,0.6-2,1.7-2.5c1.1-0.6,1.7-1.4,1.7-2.5c-2.3-2.3,7.1-27.4,28-75.5
			c20.9-48,31.9-73.8,33.1-77.2l13.6-30.5c0-3.4,1.1-6.2,3.4-8.5c0-1.1,0-2.8,0-5.1c0-2.3,1.1-3.9,3.4-5.1c0-4.5,1.1-7.9,3.4-10.2
			c1.1-1.1,1.4-3.4,0.8-6.8c-0.6-3.4-0.3-6.2,0.9-8.5c2.3,0,3.7-1.7,4.2-5.1c0.6-3.4,1.4-5.1,2.5-5.1l-1.7-3.4l-1.7-1.7h-23.7
			l-28.8-1.7h-278.1h-10.2l-54.3,1.7c-7.9,0-18.7,2.8-32.2,8.5l-27.1,11.9c-6.8,3.4-10.7,5.7-11.9,6.8l-10.2,8.5
			c-3.4,3.4-8.5,6.2-15.3,8.5l-17,6.8c-4.5,2.3-7.4,3.4-8.5,3.4l-8.5,6.8c-1.1,0-3.1,0.6-5.9,1.7c-2.8,1.1-4.8,2.8-5.9,5.1
			c-1.1,1.1-2.5,1.7-4.2,1.7c-1.7,0-3.1,0.6-4.2,1.7c-3.4,0-5.9,1.1-7.6,3.4c-1.7,2.3-3.1,4-4.2,5.1c1.1,2.3,0.8,3.7-0.9,4.2
			c-1.7,0.6-3.1,1.4-4.2,2.5c-4.5,3.4-6.8,6.2-6.8,8.5l-6.8,6.8c-2.3,1.1-7.4,7.9-15.3,20.3c-1.1,2.3-2.8,4-5.1,5.1
			c-2.3,1.1-3.4,2.3-3.4,3.4s-0.3,2-0.9,2.5c-0.6,0.6-1.4,0.9-2.5,0.9l-11.9,10.2c-1.1,1.1-2.3,3.1-3.4,5.9
			c-1.1,2.8-2.8,4.8-5.1,5.9c-1.1,0-1.7,1.7-1.7,5.1v6.8c-3.4,2.3-3.4,4.5,0,6.8c1.1,2.3,1.7,5.7,1.7,10.2c-2.3,2.3-3.4,5.1-3.4,8.5
			c0,2.3-0.9,4.2-2.6,5.9c-1.7,1.7-3.1,3.7-4.2,5.9l-1.7,3.4c0,3.4-1.1,6.2-3.4,8.5c-1.1,1.1-2,2.5-2.5,4.2
			c-0.6,1.7-1.4,3.1-2.5,4.2c0,5.6-0.6,9-1.7,10.2c0,4.5-1.1,7.9-3.4,10.2c0,4.5-1.1,7.4-3.4,8.5c3.4,1.1,3.9,4,1.7,8.5
			c0,2.3,0.6,4,1.7,5.1c1.1,1.1,1.7,2.3,1.7,3.4c0,1.1-0.6,2-1.7,2.6c-1.1,0.6-1.7,1.4-1.7,2.5c0,2.3-0.6,4-1.7,5.1
			c-1.1,1.1-1.7,2.3-1.7,3.4c-2.3,1.1-3.4,3.1-3.4,5.9c0,2.8-0.6,4.8-1.7,5.9c0,1.1-0.3,2.3-0.9,3.4c-0.6,1.1-2,2.3-4.2,3.4
			l-1.7,3.4c0,5.7-1.1,10.2-3.4,13.6c-1.1,1.1-1.1,2.5,0,4.2c1.1,1.7,1.1,3.1,0,4.2c-2.3,2.3-3.4,5.7-3.4,10.2
			c1.1,1.1,0.8,2.6-0.9,4.2c-1.7,1.7-3.1,3.1-4.2,4.2v8.5c1.1,1.1,0.8,2.5-0.9,4.2c-1.7,1.7-2.5,3.1-2.5,4.2c0,1.1,0.3,2.3,0.8,3.4
			c0.6,1.1,0.3,2.3-0.8,3.4c-3.4,3.4-4.5,6.2-3.4,8.5c1.1,3.4,0.8,5.9-0.9,7.6c-1.7,1.7-3.1,3.1-4.2,4.2c0,1.1,0,3.4,0,6.8
			s-0.6,5.6-1.7,6.8c-2.3,2.3-3.1,4.8-2.6,7.6c0.6,2.8,0.9,4.8,0.9,5.9v1.7c-2.3,1.1-3.4,4-3.4,8.5c0,1.1-0.9,2.5-2.5,4.2
			c-1.7,1.7-2.5,3.1-2.5,4.2v11.9c-2.3,2.3-3.4,4.5-3.4,6.8c0,2.3,0,4,0,5.1v11.9c-1.1,1.1-1.4,2.3-0.9,3.4c0.6,1.1,0.3,2.3-0.8,3.4
			c-2.3,2.3-3.4,28.3-3.4,78c0,48.6,0.6,96.4,1.7,143.3c1.1,46.9,1.7,71.5,1.7,73.8c-1.1,3.4-1.7,8.5-1.7,15.3
			c2.3,4.5,3.4,8.5,3.4,11.9c0,9-0.6,15.8-1.7,20.3v5.1c2.3,3.4,3.4,8.5,3.4,15.3c0,10.2-0.6,17.5-1.7,22v6.8
			c2.3,2.3,3.4,5.1,3.4,8.5c0,3.4,0,5.6,0,6.8c0,7.9-0.6,14.1-1.7,18.7v20.4V963l-1.7,18.7v18.7l-1.7,18.7v18.7
			c0,1.1,0.3,3.7,0.8,7.6c0.6,4-0.3,7.1-2.5,9.3c-1.1,2.3-0.9,5.1,0.9,8.5c1.7,3.4,2.5,6.8,2.5,10.2v13.6l-1.7,15.3v13.6v15.3
			l-1.7,13.6c-1.1,1.1-0.9,2.8,0.9,5.1c1.7,2.3,2.5,4.5,2.5,6.8v23.7c-1.1,2.3-1.7,6.2-1.7,11.9c0,1.1,0,3.1,0,5.9
			c0,2.8,0.6,5.4,1.7,7.6l249.3-1.7c3.4,1.1,6.2,1.1,8.5,0c2.3-1.1,3.9-1.7,5.1-1.7c2.3,0,5.4-0.3,9.3-0.9c4-0.6,7.1,0.3,9.3,2.5
			c0,1.1,1.1,0.6,3.4-1.7c1.1,0,1.7-1.1,1.7-3.4c0-2.3,1.1-3.4,3.4-3.4c1.1,0,2.5-0.8,4.2-2.5c1.7-1.7,2.6-2,2.6-0.9
			c2.3-1.1,5.4-2.8,9.3-5.1c3.9-2.3,7.6-3.4,11-3.4c5.6,0,8.5-2.8,8.5-8.5v-6.8c4.5-4.5,6.8-7.9,6.8-10.2l1.7-1.7
			c3.4,1.1,5.1-1.1,5.1-6.8l3.4-3.4c10.2-4.5,16.4-8.5,18.7-11.9h1.7c3.4,1.1,6.8-1.1,10.2-6.8l6.8-10.2h3.4v-13.6l11.9-16.9
			c2.3-3.4,5.7-7.1,10.2-11c4.5-3.9,7.4-7.6,8.5-11c2.3-4.5,5.7-6.8,10.2-6.8c2.3,1.1,3.1,1.1,2.5,0c-0.6-1.1-0.9-2.3-0.9-3.4
			c-2.3-2.3-3.1-4.5-2.5-6.8c0.6-2.3,0.9-3.9,0.9-5.1c0-2.3,0.8-3.9,2.5-5.1c1.7-1.1,2-2.8,0.9-5.1c0-1.1,0.6-2,1.7-2.5
			s1.7-1.4,1.7-2.6c5.7-3.4,8.5-6.2,8.5-8.5c1.1-1.1,2.5-2.5,4.2-4.2c1.7-1.7,2-3.1,0.9-4.2c1.1-1.1,3.1-1.7,5.9-1.7s4.8,0,5.9,0
			l1.7-1.7v-13.6c4.5-4.5,7.3-7.9,8.5-10.2c0-2.3,3.4-4.5,10.2-6.8v-1.7c-1.1-2.3-0.9-4.5,0.9-6.8c1.7-2.3,2.5-4.5,2.5-6.8v-1.7
			l5.1-11.9l8.5-10.2l1.7-10.2l1.7-1.7c1.1-2.2,2.8-4.2,5.1-5.9c2.3-1.7,3.4-3.7,3.4-5.9v-1.7c1.1-1.1,2.3-2.8,3.4-5.1
			c1.1-2.3,2.8-3.9,5.1-5.1c2.3,1.1,3.4,0,3.4-3.4c2.3-1.1,3.9-3.4,5.1-6.8s2.3-5.7,3.4-6.8l-1.7-5.1c-3.4-2.3-5.1-6.8-5.1-13.6
			v-5.1l6.8-1.7c5.7,0,9-2.3,10.2-6.8l1.7-3.4c2.3-2.2,2.8-4.5,1.7-6.8l-1.7-1.7v-20.3c0-2.3,0.8-3.9,2.5-5.1
			c1.7-1.1,3.1-1.7,4.2-1.7c2.3,1.1,4.2,0.9,5.9-0.9c1.7-1.7,3.1-2.5,4.2-2.5l13.6,1.7c5.6,0,9.6-1.1,11.9-3.4
			c1.1-1.1,2.2-1.1,3.4,0s1.7,2.3,1.7,3.4c0,1.1,0.6,2.3,1.7,3.4c1.1,1.1,2.3,1.1,3.4,0l6.8-6.8l5.1-6.8l8.5-6.8
			c2.3-2.3,5.1-2.3,8.5,0c2.3,1.1,4.2,1.7,5.9,1.7s3.1-1.7,4.2-5.1l5.1-5.1l6.8,6.8c1.1,1.1,3.4,2.8,6.8,5.1
			c3.4,2.3,6.2,5.1,8.5,8.5l15.3,22c6.8,10.2,63.3,79.1,169.6,206.9l10.2,10.2c1.1,1.1,2.3,2.8,3.4,5.1c1.1,2.3,2.3,4.5,3.4,6.8
			l13.6,15.3l15.3,15.3c5.6,9.1,9.6,14.1,11.9,15.3c6.8,9.1,15,18.7,24.6,28.8c9.6,10.2,17.2,18.1,22.9,23.7c2.3,5.6,5.1,9,8.5,10.2
			c4.5,0,6.8,2.3,6.8,6.8c1.1,2.3,2.8,4.2,5.1,5.9c2.3,1.7,4.5,3.7,6.8,5.9c2.3,2.3,5.1,6.8,8.5,13.6c0,3.4,2.3,5.1,6.8,5.1
			c23.7,0,41.8,0.6,54.3,1.7h3.4c3.4-3.4,6.8-4.8,10.2-4.2c3.4,0.6,6.2,0.9,8.5,0.9c33.9,2.2,58.2,3.4,72.9,3.4
			c3.4,0,7.4-1.7,11.9-5.1v-20.4L4784.2,1159.7z"/>
	</g>
</g>
</svg>
